<svg xmlns="http://www.w3.org/2000/svg" viewBox="0 0 512 512" role="img" aria-label="CXRNER MUSIC">
  <rect width="512" height="512" fill="#000"/>

  <g fill="#fff">
    <polygon points="62,140 234,284 248,328 78,184"/>
    <polygon points="450,140 278,284 264,328 434,184"/>
    <polygon points="224,286 288,286 256,408"/>
  </g>

  <g fill="none" stroke="#fff" stroke-width="3.5" stroke-linejoin="round" stroke-linecap="round">
    <path d="M78 142 L218 268"/>
    <path d="M434 142 L294 268"/>
  </g>

  <g fill="#000">
    <polygon points="96,192 216,290 194,334 106,238"/>
    <polygon points="416,192 296,290 318,334 406,238"/>
    <polygon points="222,292 290,292 256,390"/>
  </g>

  <g fill="#fff">
    <polygon points="108,196 118,220 132,205"/>
    <polygon points="126,214 138,241 154,222"/>
    <polygon points="146,233 160,262 178,241"/>
    <polygon points="168,255 184,286 204,262"/>
    <polygon points="192,279 210,312 232,285"/>

    <polygon points="404,196 394,220 380,205"/>
    <polygon points="386,214 374,241 358,222"/>
    <polygon points="366,233 352,262 334,241"/>
    <polygon points="344,255 328,286 308,262"/>
    <polygon points="320,279 302,312 280,285"/>

    <polygon points="220,304 238,336 254,308"/>
    <polygon points="292,304 274,336 258,308"/>
    <polygon points="238,344 256,376 274,344"/>
  </g>
</svg>
